<svg width="18" height="18" viewBox="0 0 18 18" fill="none" xmlns="http://www.w3.org/2000/svg">
<path d="M15.6667 4.83342H14.6592C14.7814 4.42823 14.8402 4.00657 14.8334 3.58341C14.8334 1.97508 13.525 0.666748 11.9167 0.666748C10.565 0.666748 9.66252 1.90175 9.08002 3.23758C8.50585 1.97508 7.55752 0.666748 6.08335 0.666748C4.47502 0.666748 3.16669 1.97508 3.16669 3.58341C3.16669 4.08008 3.23252 4.49091 3.34085 4.83342H2.33335C1.41419 4.83342 0.666687 5.58091 0.666687 6.50008V8.16675C0.666687 9.08592 1.41419 9.83342 2.33335 9.83342V15.6667C2.33335 16.5859 3.08085 17.3334 4.00002 17.3334H14C14.9192 17.3334 15.6667 16.5859 15.6667 15.6667V9.83342C16.5859 9.83342 17.3334 9.08592 17.3334 8.16675V6.50008C17.3334 5.58091 16.5859 4.83342 15.6667 4.83342ZM11.9167 2.33341C12.6059 2.33341 13.1667 2.89425 13.1667 3.58341C13.1667 4.83342 12.645 4.83342 12.3334 4.83342H10.2684C10.6942 3.52008 11.3125 2.33341 11.9167 2.33341ZM4.83335 3.58341C4.83335 2.89425 5.39419 2.33341 6.08335 2.33341C6.82335 2.33341 7.51169 3.60425 7.91502 4.83342H5.66669C5.35502 4.83342 4.83335 4.83342 4.83335 3.58341ZM2.33335 6.50008H8.16669V8.16675H2.33335V6.50008ZM4.00002 15.6667V9.83342H8.16669V15.6667H4.00002ZM14 15.6667H9.83335V9.83342H14V15.6667ZM9.83335 8.16675V6.57092L9.84752 6.50008H15.6667L15.6675 8.16675H9.83335Z" fill="white"/>
</svg>
